<svg width="24" height="13" viewBox="-3.5 0 24 13" fill="none" xmlns="http://www.w3.org/2000/svg">
<path d="M1.82812 0C0.825703 0 0 0.825703 0 1.82812V11.1719C0 12.1743 0.825703 13 1.82812 13H14.4219C15.4243 13 16.25 12.1743 16.25 11.1719V3.85938C16.25 2.85695 15.4243 2.03125 14.4219 2.03125H8.14246L6.32623 0.518127C5.92477 0.18367 5.41903 0 4.89642 0H1.82812ZM1.82812 1.21875H4.89642C5.13431 1.21875 5.36354 1.30218 5.54626 1.45441L6.96973 2.64062L5.54626 3.82684C5.36354 3.97907 5.13431 4.0625 4.89642 4.0625H1.21875V1.82812C1.21875 1.48423 1.48423 1.21875 1.82812 1.21875ZM8.14246 3.25H14.4219C14.7658 3.25 15.0312 3.51548 15.0312 3.85938V11.1719C15.0312 11.5158 14.7658 11.7812 14.4219 11.7812H1.82812C1.48423 11.7812 1.21875 11.5158 1.21875 11.1719V5.28125H4.89642C5.41903 5.28125 5.92477 5.09758 6.32623 4.76312L8.14246 3.25Z" fill="#22100B"/>
</svg>
