<svg width="24" height="26" viewBox="0 0 24 26" fill="none" xmlns="http://www.w3.org/2000/svg">
<g id="24 / basic / paperclip">
<path id="icon" fill-rule="evenodd" clip-rule="evenodd" d="M13.3429 7.50602L14.7679 8.91902L8.44974 15.379C8.1327 15.7048 8.1327 16.2292 8.44974 16.555C8.75058 16.8642 9.25315 16.8627 9.55079 16.5533L16.5022 9.44301C17.517 8.40024 17.517 6.72557 16.5022 5.6828C15.5339 4.6879 13.8208 4.71003 12.8718 5.6847L5.28454 13.4399C3.57154 15.1994 3.57154 18.0247 5.28454 19.7841C6.94795 21.4927 9.80544 21.4648 11.4429 19.7826L20.2919 10.7334L21.717 12.1463L12.8696 21.1938C10.4557 23.6738 6.31008 23.7142 3.85633 21.1939C1.38094 18.6513 1.38094 14.5727 3.85804 12.0285L11.4453 4.27323C13.1687 2.50304 16.1701 2.46427 17.9307 4.27337C19.7075 6.09913 19.7075 9.02668 17.9291 10.8541L10.9819 17.96C9.90719 19.0776 8.10934 19.0826 7.02113 17.9643C5.94224 16.8555 5.94224 15.0784 7.02293 13.9678L13.3429 7.50602Z" fill="black"/>
</g>
</svg>
