<svg width="24" height="19" viewBox="-5 0 24 19" fill="none" xmlns="http://www.w3.org/2000/svg">
<g id="&#208;&#152;&#208;&#183;&#208;&#177;&#209;&#128;&#208;&#176;&#208;&#189;&#208;&#189;&#208;&#190;&#208;&#181;">
<path id="Vector" d="M3.25002 0C1.46404 0 0 1.46404 0 3.25002V18.2501C4.05101e-05 18.3882 0.0381798 18.5236 0.110218 18.6413C0.182256 18.7591 0.285398 18.8547 0.408285 18.9176C0.531172 18.9805 0.669037 19.0083 0.806696 18.9979C0.944355 18.9874 1.07647 18.9392 1.18849 18.8585L7.00005 14.6739L12.8116 18.8585C12.9236 18.9392 13.0558 18.9874 13.1934 18.9979C13.3311 19.0083 13.4689 18.9805 13.5918 18.9176C13.7147 18.8547 13.8179 18.7591 13.8899 18.6413C13.9619 18.5236 14.0001 18.3882 14.0001 18.2501V3.25002C14.0001 1.46404 12.5361 0 10.7501 0H3.25002ZM3.25002 1.50001H10.7501C11.7251 1.50001 12.5001 2.27499 12.5001 3.25002V16.7863L7.43853 13.1417C7.31084 13.0497 7.15744 13.0002 7.00005 13.0002C6.84267 13.0002 6.68927 13.0497 6.56157 13.1417L1.50001 16.7863V3.25002C1.50001 2.27499 2.27499 1.50001 3.25002 1.50001Z" fill="#381C14"/>
</g>
</svg>
