<svg width="24" height="18" viewBox="-0.5 0 24 18" fill="none" xmlns="http://www.w3.org/2000/svg">
<g id="&#208;&#154;&#208;&#190;&#209;&#128;&#208;&#183;&#208;&#184;&#208;&#189;&#208;&#176;">
<path id="Vector" d="M0.760679 7.50056e-05C0.661295 -0.00133052 0.562623 0.0170303 0.470398 0.0540904C0.378172 0.0911506 0.294231 0.146171 0.223454 0.215954C0.152677 0.285737 0.0964756 0.368891 0.058115 0.460584C0.0197544 0.552276 0 0.650678 0 0.750072C0 0.849465 0.0197544 0.947867 0.058115 1.03956C0.0964756 1.13125 0.152677 1.21441 0.223454 1.28419C0.294231 1.35397 0.378172 1.40899 0.470398 1.44605C0.562623 1.48311 0.661295 1.50147 0.760679 1.50007H2.1386C2.50257 1.50007 2.80596 1.75153 2.87493 2.10944L3.02434 2.89069L4.63664 11.3584C4.9282 12.8862 6.27422 14 7.82999 14H17.1913C18.747 14 20.0936 12.8866 20.3846 11.3584L21.9969 2.89069C22.0176 2.78227 22.0141 2.67062 21.9867 2.56372C21.9592 2.45681 21.9085 2.35727 21.8382 2.2722C21.7679 2.18714 21.6797 2.11864 21.5798 2.0716C21.48 2.02456 21.371 2.00013 21.2606 2.00007H4.38078L4.34855 1.82917C4.14699 0.772838 3.21415 7.50056e-05 2.1386 7.50056e-05H0.760679ZM4.66691 3.50006H20.3543L18.911 11.0782C18.753 11.908 18.0365 12.5 17.1913 12.5H7.82999C6.98506 12.5 6.26905 11.9079 6.11027 11.0782V11.0772L4.66691 3.50006ZM9.01064 15C8.61282 15 8.23129 15.158 7.94999 15.4394C7.66868 15.7207 7.51065 16.1022 7.51065 16.5C7.51065 16.8978 7.66868 17.2794 7.94999 17.5607C8.23129 17.842 8.61282 18 9.01064 18C9.40847 18 9.79 17.842 10.0713 17.5607C10.3526 17.2794 10.5106 16.8978 10.5106 16.5C10.5106 16.1022 10.3526 15.7207 10.0713 15.4394C9.79 15.158 9.40847 15 9.01064 15ZM16.0106 15C15.6128 15 15.2313 15.158 14.95 15.4394C14.6687 15.7207 14.5106 16.1022 14.5106 16.5C14.5106 16.8978 14.6687 17.2794 14.95 17.5607C15.2313 17.842 15.6128 18 16.0106 18C16.4084 18 16.79 17.842 17.0713 17.5607C17.3526 17.2794 17.5106 16.8978 17.5106 16.5C17.5106 16.1022 17.3526 15.7207 17.0713 15.4394C16.79 15.158 16.4084 15 16.0106 15Z" fill="#381C14"/>
</g>
</svg>
