<svg width="24" height="24" viewBox="-7 -7 24 24" fill="none" xmlns="http://www.w3.org/2000/svg">
<path id="&#208;&#151;&#208;&#176;&#208;&#186;&#209;&#128;&#209;&#139;&#209;&#130;&#209;&#140; &#208;&#188;&#208;&#184;&#208;&#189;&#208;&#184;" opacity="0.5" d="M6.0475 4.9875L9.7575 1.2775C10.0475 0.9875 10.0475 0.5075 9.7575 0.2175C9.4675 -0.0725 8.9975 -0.0725 8.6975 0.2175L4.9875 3.9275L1.2775 0.2175C0.9875 -0.0725 0.5075 -0.0725 0.2175 0.2175C-0.0725 0.5075 -0.0725 0.9875 0.2175 1.2775L3.9275 4.9875L0.2175 8.6975C-0.0725 8.9875 -0.0725 9.4675 0.2175 9.7575C0.5075 10.0475 0.9875 10.0475 1.2775 9.7575L4.9875 6.0475L8.6975 9.7675C8.9875 10.0575 9.4675 10.0575 9.7575 9.7675C10.0475 9.4775 10.0475 8.9975 9.7575 8.7075L6.0475 4.9875Z" fill="#381C14"/>
</svg>
