<svg width="70" height="40" viewBox="0 0 70 40" fill="none" xmlns="http://www.w3.org/2000/svg">
<path d="M45.2089 13.5735C44.1473 13.1866 43.025 12.9925 41.8951 13.0002C38.241 13.0002 35.6603 14.841 35.642 17.4833C35.6192 19.4246 37.4759 20.5185 38.8805 21.1671C40.3216 21.834 40.8035 22.2542 40.7989 22.8503C40.7898 23.757 39.6478 24.1681 38.5859 24.1681C37.1265 24.1681 36.3295 23.9648 35.1031 23.4555L34.6486 23.2431L34.1302 26.2852C35.0186 26.6551 36.6195 26.9726 38.273 27C42.1578 27 44.6974 25.1707 44.727 22.3593C44.759 20.8086 43.7541 19.637 41.6393 18.6686C40.3535 18.0406 39.5565 17.6204 39.5565 16.9832C39.5565 16.4191 40.2394 15.8162 41.6667 15.8162C42.6167 15.7932 43.5608 15.9714 44.437 16.3392L44.7796 16.4922L45.298 13.5529L45.2089 13.5735ZM54.6913 13.2469H51.8366C50.9482 13.2469 50.279 13.4912 49.8908 14.3728L44.4005 26.8104H48.2852L49.0617 24.771L53.8029 24.7756C53.9148 25.2529 54.2574 26.8104 54.2574 26.8104H57.6831L54.6913 13.2469ZM30.387 13.1327H34.089L31.7733 26.7031H28.0758L30.387 13.1281V13.1327ZM20.9891 20.6122L21.3728 22.4963L24.9903 13.2469H28.9116L23.0856 26.7922H19.1735L15.9761 15.3229C15.9243 15.1337 15.8027 14.9713 15.6358 14.8684C14.4834 14.2731 13.2624 13.8213 12 13.5232L12.0502 13.2377H18.0087C18.8172 13.2697 19.4681 13.5232 19.685 14.3865L20.9868 20.619L20.9891 20.6122ZM50.1237 21.9962L51.599 18.2005C51.5808 18.2416 51.9028 17.4171 52.0901 16.9078L52.3436 18.0794L53.2 21.9939H50.1214L50.1237 21.9962Z" fill="#1434CB"/>
</svg>
