<svg width="70" height="40" viewBox="0 0 70 40" fill="none" xmlns="http://www.w3.org/2000/svg">
<g id="Group 673">
<g id="Group 599">
<g id="Group 600">
<path id="path60" d="M56.7316 17.6216V24.9086H54.1043V19.7969H51.5746V24.9086H48.9473V17.6211H56.7316V17.6216Z" fill="black"/>
<path id="path62" fill-rule="evenodd" clip-rule="evenodd" d="M43.6995 25.2391C46.0452 25.2391 47.7871 23.8076 47.7871 21.6375C47.7871 19.537 46.502 18.1733 44.3541 18.1733C43.3628 18.1733 42.5449 18.5206 41.9289 19.1198C42.0759 17.8813 43.1282 16.9771 44.2868 16.9771C44.5542 16.9771 46.5672 16.9728 46.5672 16.9728L47.7056 14.8047C47.7056 14.8047 45.1783 14.8619 44.0034 14.8619C41.319 14.9085 39.5059 17.337 39.5059 20.2866C39.5059 23.7229 41.2743 25.2391 43.6995 25.2391ZM43.7138 20.0937C44.5847 20.0937 45.1885 20.6633 45.1885 21.6372C45.1885 22.5138 44.652 23.236 43.7138 23.238C42.8163 23.238 42.2125 22.5688 42.2125 21.6522C42.2125 20.678 42.8163 20.0937 43.7138 20.0937Z" fill="black"/>
<path id="path64" d="M37.2542 22.5647C37.2542 22.5647 36.6381 22.9253 35.718 22.9936C34.6602 23.0255 33.7177 22.347 33.7177 21.1414C33.7177 19.9654 34.5494 19.2914 35.6914 19.2914C36.3916 19.2914 37.3179 19.7843 37.3179 19.7843C37.3179 19.7843 37.9958 18.5211 38.3469 17.8893C37.7039 17.3944 36.8476 17.123 35.8515 17.123C33.3377 17.123 31.3906 18.7876 31.3906 21.1265C31.3906 23.4951 33.2206 25.121 35.8515 25.072C36.5868 25.0442 37.6013 24.7819 38.2196 24.3785L37.2542 22.5647Z" fill="black"/>
</g>
<g id="Group 601">
<path id="path66" d="M14 14.3281L16.4069 18.6302V21.2544L14.0028 25.5481L14 14.3281Z" fill="#5B57A2"/>
<path id="path68" d="M23.2422 17.0624L25.4975 15.6801L30.1131 15.6758L23.2422 19.885V17.0624Z" fill="#D90751"/>
<path id="path70" d="M23.2279 14.3008L23.2406 19.9966L20.8281 18.5143V10L23.2279 14.3008Z" fill="#FAB718"/>
<path id="path72" d="M30.1116 15.6761L25.4958 15.6804L23.2279 14.3008L20.8281 10L30.1116 15.6761Z" fill="#ED6F26"/>
<path id="path74" d="M23.2406 25.5692V22.8058L20.8281 21.3516L20.8294 29.8743L23.2406 25.5692Z" fill="#63B22F"/>
<path id="path76" d="M25.4911 24.2022L16.4067 18.6302L14 14.3281L30.1026 24.1966L25.4911 24.2022Z" fill="#1487C9"/>
<path id="path78" d="M20.832 29.8758L23.2429 25.5707L25.4926 24.2009L30.1041 24.1953L20.832 29.8758Z" fill="#017F36"/>
<path id="path80" d="M14.0039 25.5472L20.8497 21.3535L18.5482 19.9414L16.408 21.2535L14.0039 25.5472Z" fill="#984995"/>
</g>
</g>
</g>
</svg>
