<svg width="70" height="40" viewBox="0 0 70 40" fill="none" xmlns="http://www.w3.org/2000/svg">
<path d="M39.4278 12.125H30.7324V27.749H39.4278V12.125Z" fill="#FF5F00"/>
<path d="M31.2839 19.9375C31.2839 16.763 32.7745 13.9474 35.0657 12.1255C33.3818 10.8005 31.2563 10 28.9375 10C23.4443 10 19 14.4443 19 19.9375C19 25.4308 23.4443 29.875 28.9375 29.875C31.2563 29.875 33.3818 29.0745 35.0657 27.7495C32.7745 25.9552 31.2839 23.112 31.2839 19.9375Z" fill="#EB001B"/>
<path d="M51.1594 19.9375C51.1594 25.4308 46.7151 29.875 41.2219 29.875C38.9031 29.875 36.7776 29.0745 35.0938 27.7495C37.4125 25.9276 38.8755 23.112 38.8755 19.9375C38.8755 16.763 37.3849 13.9474 35.0938 12.1255C36.7776 10.8005 38.9031 10 41.2219 10C46.7151 10 51.1594 14.4719 51.1594 19.9375Z" fill="#F79E1B"/>
</svg>
