<svg width="70" height="40" viewBox="0 0 70 40" fill="none" xmlns="http://www.w3.org/2000/svg">
<path d="M11 14.0021H15.468C15.8742 14.0021 17.0928 13.8667 17.6343 15.7622C18.0405 16.9808 18.5821 18.8763 19.3945 21.7196H19.6653C20.4776 18.7409 21.1546 16.71 21.4254 15.7622C21.967 13.8667 23.3209 14.0021 23.8625 14.0021H28.0597V27H23.7271V19.2825H23.4563L21.1546 27H17.9051L15.6034 19.2825H15.1972V27H11M29.8199 14.0021H34.1525V21.7196H34.5587L37.402 15.3561C37.9435 14.1375 39.1621 14.0021 39.1621 14.0021H43.2239V27H38.8913V19.2825H38.6205L35.7772 25.6461C35.2356 26.8646 33.8817 27 33.8817 27H29.8199M49.0459 23.0736V27H44.9841V20.2303H58.2527C57.7111 21.855 55.8156 23.0736 53.6493 23.0736" fill="#0F754E"/>
<path d="M58.5231 19.4177C59.0647 16.9806 57.44 14.002 53.9197 14.002H44.7129C44.9837 16.8452 47.4208 19.4177 49.9933 19.4177" fill="url(#paint0_linear_211_7054)"/>
<defs>
<linearGradient id="paint0_linear_211_7054" x1="56.8984" y1="12.2418" x2="46.0668" y2="12.2418" gradientUnits="userSpaceOnUse">
<stop stop-color="#1F5CD7"/>
<stop offset="1" stop-color="#02AEFF"/>
</linearGradient>
</defs>
</svg>
