<svg width="70" height="40" viewBox="0 0 70 40" fill="none" xmlns="http://www.w3.org/2000/svg">
<path fill-rule="evenodd" clip-rule="evenodd" d="M30.7227 12.1309H39.4169V27.752H30.7227V12.1309Z" fill="#6C6BBD"/>
<path fill-rule="evenodd" clip-rule="evenodd" d="M31.282 19.9375C31.282 16.7671 32.7651 13.943 35.0741 12.1225C33.3868 10.7904 31.2554 10 28.9375 10C23.4492 10 19 14.4492 19 19.9375C19 25.4258 23.4492 29.875 28.9375 29.875C31.2554 29.875 33.3868 29.0847 35.0741 27.7525C32.7651 25.932 31.282 23.1079 31.282 19.9375Z" fill="#EB001B"/>
<path fill-rule="evenodd" clip-rule="evenodd" d="M51.1405 19.9375C51.1405 25.4258 46.6913 29.875 41.203 29.875C38.8851 29.875 36.7537 29.0847 35.0664 27.7525C37.3754 25.932 38.8585 23.1079 38.8585 19.9375C38.8585 16.7671 37.3754 13.943 35.0664 12.1225C36.7537 10.7904 38.8851 10 41.203 10C46.7001 10.0089 51.1405 14.4581 51.1405 19.9375Z" fill="#0099DF"/>
</svg>
