<svg width="32" height="30" viewBox="0 0 32 30" fill="none" xmlns="http://www.w3.org/2000/svg">
<path id="Vector" fill-rule="evenodd" clip-rule="evenodd" d="M13.9808 1.17146C14.3633 0.451486 15.1118 0 15.9278 0C16.7437 0 17.4922 0.451486 17.8747 1.17146L21.5691 8.13875C21.6111 8.21975 21.6726 8.28875 21.7461 8.34275C21.8196 8.39674 21.9051 8.43274 21.9951 8.44774L29.7618 9.8082C30.5658 9.9492 31.2243 10.5222 31.4778 11.2977C31.7298 12.0731 31.5333 12.9251 30.9648 13.5116L25.481 19.1784C25.418 19.2444 25.37 19.3239 25.3415 19.4094C25.313 19.4964 25.3055 19.5879 25.3175 19.6794L26.4229 27.4867C26.5369 28.2936 26.1965 29.0991 25.5365 29.5791C24.8765 30.0591 24.0065 30.1341 23.273 29.7756L16.1903 26.3107C16.1093 26.2702 16.0193 26.2492 15.9278 26.2492C15.8363 26.2492 15.7463 26.2702 15.6638 26.3092L8.58099 29.7741C7.84751 30.1326 6.97754 30.0561 6.31756 29.5776C5.65758 29.0976 5.31709 28.2936 5.43109 27.4852L6.53655 19.6779C6.55005 19.5879 6.54105 19.4949 6.51255 19.4079C6.48405 19.3209 6.43756 19.2414 6.37306 19.1769L0.889225 13.5101C0.322242 12.9236 0.124248 12.0716 0.37624 11.2962C0.628233 10.5207 1.28821 9.9477 2.09219 9.8067L9.85895 8.44624C9.94895 8.42974 10.0344 8.39374 10.1079 8.34125C10.1814 8.28725 10.2429 8.21825 10.2849 8.13725L13.9808 1.17146Z" fill="#F8F7F7"/>
</svg>
