<svg width="33" height="30" viewBox="0 0 33 30" fill="none" xmlns="http://www.w3.org/2000/svg">
<path id="Vector" fill-rule="evenodd" clip-rule="evenodd" d="M14.6637 1.17146C15.0462 0.451486 15.7947 0 16.6106 0C17.4266 0 18.1751 0.451486 18.5576 1.17146L22.252 8.13875C22.294 8.21975 22.3555 8.28875 22.429 8.34275C22.5024 8.39674 22.5879 8.43274 22.6779 8.44774L30.4447 9.8082C31.2487 9.9492 31.9072 10.5222 32.1607 11.2977C32.4126 12.0731 32.2162 12.9251 31.6477 13.5116L26.1638 19.1784C26.1008 19.2444 26.0528 19.3239 26.0243 19.4094C25.9958 19.4964 25.9883 19.5879 26.0003 19.6794L27.1058 27.4867C27.2198 28.2936 26.8793 29.0991 26.2193 29.5791C25.5594 30.0591 24.6894 30.1341 23.9559 29.7756L16.8731 26.3107C16.7921 26.2702 16.7021 26.2492 16.6106 26.2492C16.5191 26.2492 16.4291 26.2702 16.3466 26.3092L9.26385 29.7741C8.53037 30.1326 7.6604 30.0561 7.00042 29.5776C6.34044 29.0976 5.99995 28.2936 6.11395 27.4852L7.21941 19.6779C7.23291 19.5879 7.22391 19.4949 7.19542 19.4079C7.16692 19.3209 7.12042 19.2414 7.05592 19.1769L1.57209 13.5101C1.0051 12.9236 0.807109 12.0716 1.0591 11.2962C1.31109 10.5207 1.97107 9.9477 2.77505 9.8067L10.5418 8.44624C10.6318 8.42974 10.7173 8.39374 10.7908 8.34125C10.8643 8.28725 10.9258 8.21825 10.9678 8.13725L14.6637 1.17146Z" fill="#ECCAA2"/>
</svg>
