<svg width="10" height="10" viewBox="0 0 10 10" fill="none" xmlns="http://www.w3.org/2000/svg">
<g id="Group 449">
<path id="Vector" fill-rule="evenodd" clip-rule="evenodd" d="M4.57076 0.390488C4.69825 0.150495 4.94775 0 5.21974 0C5.49173 0 5.74122 0.150495 5.86872 0.390488L7.10018 2.71292C7.11418 2.73992 7.13468 2.76292 7.15918 2.78092C7.18368 2.79891 7.21218 2.81091 7.24218 2.81591L9.8311 3.2694C10.0991 3.3164 10.3186 3.50739 10.4031 3.76589C10.4871 4.02438 10.4216 4.30837 10.2321 4.50386L8.40414 6.39281C8.38314 6.4148 8.36714 6.4413 8.35764 6.4698C8.34814 6.4988 8.34564 6.5293 8.34964 6.5598L8.71813 9.16222C8.75613 9.43121 8.64263 9.69971 8.42264 9.8597C8.20265 10.0197 7.91265 10.0447 7.66816 9.9252L5.30723 8.77023C5.28024 8.75673 5.25024 8.74973 5.21974 8.74973C5.18924 8.74973 5.15924 8.75673 5.13174 8.76973L2.77081 9.9247C2.52632 10.0442 2.23633 10.0187 2.01633 9.8592C1.79634 9.69921 1.68284 9.43121 1.72084 9.16172L2.08933 6.5593C2.09383 6.5293 2.09083 6.4983 2.08133 6.4693C2.07183 6.4403 2.05633 6.41381 2.03483 6.39231L0.20689 4.50336C0.0178958 4.30787 -0.0481022 4.02388 0.0358952 3.76539C0.119893 3.50689 0.339886 3.3159 0.607878 3.2689L3.1968 2.81541C3.2268 2.80991 3.2553 2.79791 3.2798 2.78042C3.3043 2.76242 3.32479 2.73942 3.33879 2.71242L4.57076 0.390488Z" fill="#ECCAA2"/>
</g>
</svg>
