<svg width="24" height="17" viewBox="0 0 24 17" fill="none" xmlns="http://www.w3.org/2000/svg">
<g id="Group 391">
<path id="Vector" d="M23.5057 2.62931C23.2289 1.60131 22.4184 0.790771 21.3904 0.514001C19.5123 0 11.9999 0 11.9999 0C11.9999 0 4.48763 0 2.60954 0.494232C1.60131 0.771002 0.771002 1.60131 0.494232 2.62931C0 4.50739 0 8.40194 0 8.40194C0 8.40194 0 12.3163 0.494232 14.1746C0.771002 15.2026 1.58154 16.0131 2.60954 16.2899C4.50739 16.8039 11.9999 16.8039 11.9999 16.8039C11.9999 16.8039 19.5123 16.8039 21.3904 16.3097C22.4184 16.0329 23.2289 15.2223 23.5057 14.1943C23.9999 12.3163 23.9999 8.42171 23.9999 8.42171C23.9999 8.42171 24.0197 4.50739 23.5057 2.62931Z" fill="white"/>
<path id="Vector_2" d="M9.60815 12.0007L15.8552 8.4027L9.60815 4.80469V12.0007Z" fill="#A49A90"/>
</g>
</svg>
