<svg width="24" height="16" viewBox="-3.5 0 24 16" fill="none" xmlns="http://www.w3.org/2000/svg">
<path id="Vector" d="M8.04708 0C3.64708 0 0.0470766 3.6 0.0470766 8C0.0470766 9.28 0.367077 10.56 0.927077 11.6L0.0470766 14.72C-0.192923 15.44 0.527077 16.16 1.24708 15.92L4.36708 15.04C5.48708 15.68 6.76708 16 8.04708 16C12.4471 16 16.0471 12.4 16.0471 8C16.0471 3.6 12.4471 0 8.04708 0ZM8.04708 1.2C11.8071 1.2 14.8471 4.24 14.8471 8C14.8471 11.76 11.8071 14.8 8.04708 14.8C6.84708 14.8 5.72708 14.48 4.76708 13.92C4.60708 13.84 4.44708 13.84 4.28708 13.84L1.32708 14.64L2.12708 11.68C2.20708 11.52 2.12708 11.36 2.04708 11.2C1.48708 10.24 1.16708 9.12 1.16708 7.92C1.24708 4.24 4.28708 1.2 8.04708 1.2ZM5.32708 4.4C5.24708 4.4 5.00708 4.48 4.84708 4.64C4.68708 4.8 4.12708 5.28 4.12708 6.24C4.12708 7.2 4.84708 8.08 4.92708 8.24C5.00708 8.4 6.28708 10.32 8.20708 11.12C9.80708 11.76 10.1271 11.6 10.5271 11.6C10.8471 11.6 11.6471 11.12 11.8071 10.72C11.9671 10.24 11.9671 9.92 11.8871 9.84C11.8071 9.76 11.7271 9.68 11.4871 9.6C11.3271 9.52 10.3671 9.04 10.2071 8.96C10.0471 8.88 9.88708 8.88 9.80708 9.04C9.64708 9.2 9.32708 9.68 9.16708 9.76C9.08708 9.92 8.92708 9.92 8.76708 9.84C8.60708 9.76 7.96708 9.52 7.24708 8.88C6.68708 8.4 6.28708 7.76 6.20708 7.52C6.04708 7.36 6.20708 7.2 6.28708 7.12C6.36708 7.04 6.44708 6.88 6.52708 6.8C6.60708 6.72 6.68708 6.64 6.68708 6.48C6.76708 6.32 6.68708 6.24 6.68708 6.16C6.68708 6.08 6.28708 5.12 6.12708 4.72C5.96708 4.4 5.80708 4.4 5.72708 4.4C5.56708 4.4 5.48708 4.4 5.32708 4.4Z" fill="#14D361"/>
</svg>
