<svg width="19" height="24" viewBox="0 0 19 24" fill="none" xmlns="http://www.w3.org/2000/svg">
<path id="Vector" d="M16.4169 2.45941C14.7648 0.873475 12.4786 0 9.97934 0C6.16162 0 3.81354 1.56493 2.51603 2.87768C0.916929 4.49549 0 6.64364 0 8.77141C0 11.443 1.11746 13.4935 2.98877 14.2563C3.1144 14.3078 3.24082 14.3337 3.36476 14.3337C3.75954 14.3337 4.07234 14.0754 4.18072 13.6611C4.24391 13.4234 4.39025 12.8369 4.45391 12.5823C4.59013 12.0796 4.48007 11.8378 4.18297 11.4876C3.64175 10.8472 3.3897 10.09 3.3897 9.10441C3.3897 6.177 5.5695 3.06579 9.60954 3.06579C12.8152 3.06579 14.8064 4.88774 14.8064 7.82054C14.8064 9.67128 14.4078 11.3852 13.6837 12.6469C13.1806 13.5235 12.2958 14.5685 10.9375 14.5685C10.3502 14.5685 9.82254 14.3273 9.48963 13.9066C9.17515 13.509 9.07146 12.9953 9.19797 12.4599C9.34085 11.8551 9.53571 11.2241 9.72429 10.6142C10.0682 9.50013 10.3933 8.44792 10.3933 7.60843C10.3933 6.17255 9.51059 5.20771 8.1969 5.20771C6.52739 5.20771 5.21943 6.90338 5.21943 9.06808C5.21943 10.1297 5.50157 10.9238 5.62931 11.2287C5.41898 12.1198 4.169 17.4176 3.9319 18.4166C3.79479 18.9998 2.96894 23.606 4.33588 23.9732C5.8717 24.3859 7.24454 19.8998 7.38427 19.3929C7.49752 18.9806 7.89376 17.4217 8.13658 16.4634C8.878 17.1776 10.0718 17.6604 11.2333 17.6604C13.4231 17.6604 15.3925 16.675 16.7786 14.8859C18.1229 13.1506 18.8633 10.7319 18.8633 8.07573C18.8633 5.99925 17.9715 3.95211 16.4169 2.45941Z" fill="white"/>
</svg>
