<svg width="40" height="20" viewBox="-3.5 0 40 20" fill="none" xmlns="http://www.w3.org/2000/svg">
<g id="Group 391">
<path id="Vector" d="M31.8621 3.12941C31.4869 1.90588 30.3882 0.941176 28.9948 0.611765C26.449 0 16.266 0 16.266 0C16.266 0 6.08301 0 3.53725 0.588235C2.17059 0.917647 1.0451 1.90588 0.669935 3.12941C0 5.36471 0 10 0 10C0 10 0 14.6588 0.669935 16.8706C1.0451 18.0941 2.14379 19.0588 3.53725 19.3882C6.1098 20 16.266 20 16.266 20C16.266 20 26.449 20 28.9948 19.4118C30.3882 19.0824 31.4869 18.1176 31.8621 16.8941C32.532 14.6588 32.532 10.0235 32.532 10.0235C32.532 10.0235 32.5588 5.36471 31.8621 3.12941Z" fill="#ECCAA2"/>
<path id="Vector_2" d="M13.0241 14.2825L21.4921 10.0001L13.0241 5.71777V14.2825Z" fill="#381C14"/>
</g>
</svg>
