<svg width="60" height="60" viewBox="0 0 60 60" fill="none" xmlns="http://www.w3.org/2000/svg">
<g id="Group 447">
<path id="Vector" d="M0 30C0 13.431 13.428 0 30 0C46.566 0 60 13.431 60 30C60 46.569 46.566 60 30 60C13.428 60 0 46.569 0 30Z" fill="#ECCAA2"/>
<path id="Vector_2" d="M33.8396 16.9977H31.0676C25.9856 16.9977 23.3126 19.5717 23.3126 23.3667C23.3126 27.6567 25.1606 29.6667 28.9556 32.2437L32.0906 34.3557L23.0816 47.8167H16.3496L24.4346 35.7747C19.7846 32.4417 17.1746 29.2047 17.1746 23.7297C17.1746 16.8657 21.9596 12.1797 31.0346 12.1797H40.0436V47.7837H33.8396V16.9977Z" fill="white"/>
</g>
</svg>
