<svg width="170" height="150" viewBox="0 0 170 150" fill="none" xmlns="http://www.w3.org/2000/svg">
<g id="&#208;&#145;&#208;&#181;&#209;&#129;&#208;&#186;&#208;&#190;&#208;&#189;&#208;&#181;&#209;&#135;&#208;&#189;&#208;&#190;&#209;&#129;&#209;&#130;&#209;&#140;">
<path id="masiero-logo-color_1_" fill-rule="evenodd" clip-rule="evenodd" d="M136.163 66.1665C131.281 66.1665 127.326 70.1243 127.326 75.0034C127.326 79.8825 131.284 83.8403 136.163 83.8403C141.045 83.8403 145 79.8825 145 75.0034C145 70.1243 141.042 66.1665 136.163 66.1665ZM136.163 81.0047C132.851 81.0047 130.162 78.3183 130.162 75.0062C130.162 71.6913 132.848 69.005 136.163 69.005C139.478 69.005 142.164 71.6913 142.164 75.0062C142.162 78.3183 139.475 81.0047 136.163 81.0047ZM37.7316 66.4362L32.752 74.923L27.85 66.4362H27.8414H27.8069H25V83.5906H27.8414V71.7516L31.6844 78.5508H33.8168L37.7316 71.6827V83.5935H40.6332V66.4362H37.7316ZM58.3013 81.2314H52.8941L53.3217 78.5737H57.2164L53.758 70.0755L48.2676 83.6107H44.8465L52.3172 66.4362H55.3652L62.7642 83.6107H59.2714L58.3013 81.2314ZM83.753 83.5906H86.8067V66.4362H83.753V83.5906ZM93.5169 66.4362H104.882V69.1972H96.5706V73.4134H104.446V76.1744H96.5706V80.8267H105.319V83.5877H93.5169V66.4362ZM69.44 70.9681C69.44 74.4093 77.9038 72.4462 77.9038 78.5536C77.9038 82.2359 74.9964 84.0297 71.627 84.0297C69.4945 84.0297 67.4108 83.3753 66.0045 81.705L68.3063 79.4749C69.0583 80.6143 70.3412 81.2687 71.6987 81.2687C73.105 81.2687 74.7037 80.4938 74.7037 78.9181C74.7037 75.1641 66.2399 77.3195 66.2399 71.1891C66.2399 67.6474 69.3912 66 72.5655 66C74.3593 66 76.1502 66.508 77.4848 67.768L75.2547 70.1185C74.6003 69.1972 73.438 68.761 72.2498 68.761C70.8434 68.7639 69.44 69.3924 69.44 70.9681ZM116.294 73.7061H113.9V69.0537H116.561C118.136 69.0537 120.025 69.2948 120.025 71.3297C120.025 73.5597 118.013 73.7061 116.294 73.7061ZM123.805 83.5906L119.25 76.005C121.796 75.6405 123.225 73.8238 123.225 71.3527C123.225 67.501 120.122 66.4334 116.828 66.4334H113.9H113.234H110.866V83.5877H113.9V76.3236H116.147L120.122 83.5935H123.805V83.5906Z" fill="white"/>
</g>
</svg>
