<svg width="170" height="150" viewBox="0 0 170 150" fill="none" xmlns="http://www.w3.org/2000/svg">
<g id="&#208;&#145;&#208;&#181;&#209;&#129;&#208;&#186;&#208;&#190;&#208;&#189;&#208;&#181;&#209;&#135;&#208;&#189;&#208;&#190;&#209;&#129;&#209;&#130;&#209;&#140;">
<g id="Group 574">
<path id="Vector" d="M94.4721 83.7114L94.5791 83.7039C94.7768 83.695 94.9326 83.7003 95.0781 83.8351L95.1059 86.5069C95.1114 87.0257 95.1866 87.6593 95.0531 88.1615L94.8315 88.2308C94.6194 88.2242 94.4819 88.2517 94.3047 88.1306L94.3254 83.8351L94.4721 83.7114Z" fill="white"/>
<path id="Vector_2" d="M68.1653 83.7724C68.3998 83.7141 68.6643 83.6886 68.8991 83.7514C68.9342 83.8054 68.9599 83.8564 68.9617 83.9222L68.9797 87.1331C68.9797 87.3199 69.033 87.8913 68.9597 88.0371C68.9367 88.0831 68.8342 88.168 68.7957 88.2081C68.6531 88.2669 68.4388 88.2216 68.2869 88.2095C68.2687 88.1931 68.1944 88.1368 68.1864 88.1184C68.1256 87.9788 68.1741 87.4579 68.1732 87.2857C68.1669 86.131 68.2605 84.9162 68.1653 83.7724Z" fill="white"/>
<path id="Vector_3" d="M61.8114 83.7113C61.9983 83.7015 62.1723 83.6817 62.3505 83.7528C62.4773 83.9446 62.4211 84.4379 62.4227 84.6825L62.4147 87.4429L63.9591 87.4702C64.213 87.4741 64.5228 87.4433 64.7592 87.5435C64.8375 87.7526 64.7781 87.9515 64.7341 88.1617L64.4622 88.25L61.6055 88.2193C61.6777 87.1939 61.6285 86.1435 61.6282 85.1152C61.6282 84.7094 61.5816 84.2432 61.6633 83.8453C61.677 83.7783 61.7553 83.7487 61.8114 83.7113Z" fill="white"/>
<path id="Vector_4" d="M88.2355 83.71C88.7414 83.7011 90.5862 83.5998 90.8902 83.8253C90.8909 84.0487 90.9383 84.2339 90.7934 84.4115L89.5348 84.4327C89.469 84.5249 89.5055 84.865 89.5059 84.9882C89.5077 85.5177 89.6419 87.496 89.3982 87.8515C89.4385 87.9365 89.4533 88.0237 89.4708 88.1155L89.3574 88.2278C89.119 88.2239 88.9185 88.2567 88.7113 88.1292L88.7065 84.4555C88.3624 84.4302 87.6087 84.5227 87.3252 84.3614C87.2288 84.2036 87.2664 84.01 87.2794 83.8337C87.4652 83.6697 87.9877 83.7182 88.2355 83.71Z" fill="white"/>
<path id="Vector_5" d="M83.3082 83.7112L83.4886 83.6994C83.6596 83.6971 83.7854 83.7144 83.9056 83.8349L83.9111 88.2158C83.6562 88.2454 83.3875 88.2237 83.131 88.2183L83.124 86.3097C82.4455 86.3853 81.6825 86.3266 81.0002 86.3106C81.009 86.8807 81.0532 87.4783 80.9892 88.0445C80.9842 88.0889 80.8344 88.1898 80.7924 88.2233C80.6225 88.2506 80.3993 88.2208 80.2242 88.2187C80.213 88.1937 80.2046 88.1759 80.2012 88.1486C80.1547 87.7942 80.2103 87.3537 80.2103 86.9911C80.2103 86.527 80.0834 84.069 80.2937 83.7732C80.5116 83.6876 80.7048 83.7197 80.9311 83.7475C81.1261 84.026 81.0059 85.1828 81.0043 85.5659L83.124 85.5547L83.1625 83.8349L83.3082 83.7112Z" fill="white"/>
<path id="Vector_6" d="M74.4962 83.649C75.2849 83.5995 75.8721 83.7672 76.5187 84.2186C76.3932 84.432 76.1987 84.6285 76.0395 84.8189L75.3776 84.4864C74.9895 84.3179 74.6294 84.33 74.2409 84.4855C73.8774 84.631 73.6155 84.9287 73.4649 85.2854C73.2884 85.7038 73.2804 86.2035 73.4535 86.6241C73.5972 86.9735 73.8917 87.2696 74.2425 87.411C74.8039 87.6374 75.3091 87.4812 75.8372 87.2587C75.942 86.9876 75.9263 86.6476 75.942 86.3588L74.9025 86.3372C74.6902 86.2037 74.7324 86.0324 74.6629 85.7976C75.1467 85.5514 76.1094 85.6653 76.6624 85.658C76.6453 86.224 76.7309 86.8906 76.6339 87.4425C76.5761 87.7734 76.0085 88.0221 75.7402 88.205C75.1032 88.2797 74.4456 88.312 73.815 88.1751C73.2351 87.6971 72.668 87.2864 72.5243 86.495C72.4136 85.8855 72.4874 85.1626 72.8525 84.6463C73.2825 84.0384 73.7795 83.7699 74.4962 83.649Z" fill="white"/>
<path id="Vector_7" d="M108.196 83.65C108.409 83.6321 108.625 83.6425 108.837 83.6589C109.288 83.6935 109.833 83.853 110.136 84.2062C110.106 84.4661 109.916 84.618 109.75 84.8148L109.152 84.518C108.746 84.3354 108.384 84.313 107.968 84.4745C107.583 84.6244 107.32 84.9334 107.159 85.3079C106.993 85.6957 106.984 86.2059 107.145 86.5992C107.293 86.9636 107.578 87.2595 107.942 87.4116C108.49 87.6412 108.998 87.4838 109.516 87.2677C109.642 87.132 109.617 86.5569 109.629 86.3571L108.57 86.323L108.467 86.184C108.454 86.0009 108.437 85.8631 108.546 85.7037L108.555 85.6916L110.387 85.6641C110.386 86.2141 110.471 86.9431 110.36 87.4711C110.307 87.7189 109.866 87.9339 109.664 88.063C109.154 88.3892 108.091 88.3038 107.513 88.1762C106.939 87.7125 106.372 87.2766 106.233 86.5015C106.121 85.8729 106.199 85.1619 106.57 84.6296C106.986 84.0338 107.501 83.7712 108.196 83.65Z" fill="white"/>
<path id="Vector_8" d="M98.9073 83.7109L99.2006 83.707C99.3425 83.7164 99.4826 83.7403 99.599 83.828C99.9278 84.0765 100.211 84.5322 100.459 84.859C100.933 85.4831 101.408 86.1155 101.927 86.7031L101.935 83.741C102.171 83.7184 102.4 83.6872 102.634 83.741C102.665 83.7785 102.702 83.8275 102.712 83.8758C102.777 84.1742 102.724 84.6085 102.725 84.9189L102.726 87.2017C102.726 87.4882 102.787 87.9512 102.634 88.1968L102.366 88.2364L102.33 88.233C102.244 88.2236 102.045 88.1963 101.982 88.1344C101.783 87.9389 101.599 87.6135 101.421 87.3857L99.616 85.0886L99.5946 86.925C99.5978 87.3231 99.6639 87.7401 99.5655 88.13C99.3666 88.2833 99.0968 88.2232 98.8483 88.2195L98.831 88.1535C98.7499 87.7654 98.8203 87.1926 98.8191 86.7876C98.8164 85.8504 98.7276 84.8219 98.8244 83.8963C98.8314 83.8291 98.8697 83.7658 98.9073 83.7109Z" fill="white"/>
<path id="Vector_9" d="M89.4027 61.0273L90.9303 61.0601L90.8175 73.4972L90.7811 76.6304C90.7754 77.0804 90.8433 77.7052 90.7007 78.1241L90.4251 78.1819L89.0752 78.1501L89.3025 61.1201L89.4027 61.0273Z" fill="white"/>
<path id="Vector_10" d="M133.193 63.9023L134.947 64.1103L132.791 79.3216L145 81.0724L144.81 82.3708L144.597 82.5177L130.969 80.6014C130.846 80.3885 132.583 68.7499 132.785 67.3151L133.121 64.9541C133.166 64.6559 133.312 64.2014 133.199 63.9161L133.193 63.9023Z" fill="white"/>
<path id="Vector_11" d="M61.8558 61.6464C61.9876 61.639 62.0658 61.6522 62.1856 61.7082L62.7941 71.1355C62.9205 73.1995 62.99 75.179 61.5244 76.8293C59.9868 78.5609 57.6744 79.1374 55.4415 79.2656C53.348 79.3857 50.9425 79.0774 49.3195 77.6275C48.5838 76.9702 48.0497 76.1437 47.7489 75.2047C47.2576 73.671 47.3214 71.8618 47.223 70.2612L46.849 64.1648L46.739 62.6227L48.4135 62.4717L49.0254 72.1097C49.1405 73.7983 49.2969 75.3243 50.655 76.5048C51.9755 77.6527 53.9479 77.802 55.6173 77.6824C57.2465 77.5657 59.0731 77.1108 60.1815 75.8266C60.7555 75.1618 61.0523 74.365 61.1686 73.5024C61.3554 72.1177 61.1081 70.5621 61.0224 69.1676L60.5514 61.7802L61.8558 61.6464Z" fill="white"/>
<path id="Vector_12" d="M95.7661 61.0284C96.4977 61.0042 97.25 61.0027 97.9806 61.0482C98.1393 61.058 98.3648 61.0412 98.4887 61.152L98.4543 61.3374C98.7463 61.4688 99.1788 61.4503 99.4997 61.4671L101.862 61.5618L110.161 61.9104C110.139 62.3297 110.185 62.946 109.954 63.3055C109.692 63.7145 109.223 64.0944 108.879 64.443L106.74 66.6141L100.132 73.3069L96.7439 76.7875L109.544 77.2785C109.528 77.6582 109.597 78.4871 109.39 78.7745L109.049 78.7655L94.3005 78.1496C94.3106 77.8249 94.273 77.194 94.3907 76.9081C94.5292 76.5722 95.1619 76.0598 95.4275 75.7882L98.4899 72.6717L107.689 63.3281L95.2942 62.8012C95.291 62.2568 95.3402 61.6249 95.4393 61.0902L95.7661 61.0284Z" fill="white"/>
<path id="Vector_13" d="M114.457 62.2031L128.877 63.3737L128.746 64.8708L115.967 63.7874L115.467 69.8798L126.632 70.7967L126.51 72.2688L118.602 71.6309C118.252 71.5649 117.863 71.5658 117.506 71.538L115.346 71.3447L114.82 77.6377L127.59 78.7064L127.467 80.169C127.356 80.2225 114.296 79.135 113.021 78.9803L113.984 67.2888L114.281 63.7017C114.323 63.2361 114.3 62.636 114.457 62.2031Z" fill="white"/>
<path id="Vector_14" d="M75.419 61.0282C76.274 61.0169 77.2574 60.9443 78.0969 61.0888C78.3356 61.1298 78.5427 61.2807 78.7718 61.3595C80.0839 61.8106 81.2436 62.2701 82.2904 63.2177C84.0347 64.7966 84.8977 66.8916 85.0102 69.2227C85.125 71.6022 84.4909 73.9046 82.8659 75.6893C81.1177 77.6093 78.6686 78.3373 76.1517 78.4578L76.0055 78.467C73.5141 78.5051 71.0101 77.8341 69.1813 76.0687C67.4852 74.4314 66.699 72.2568 66.6625 69.9271C66.6261 67.5956 67.3046 65.3442 68.9567 63.6472C70.151 62.4206 71.4221 61.8971 72.9984 61.3549C73.2057 61.2836 73.3874 61.1044 73.5986 61.068C74.1582 60.9716 74.8455 61.0351 75.419 61.0282ZM74.9034 62.6348C72.8586 62.875 71.1085 63.6275 69.8062 65.2724C68.6492 66.7335 68.229 68.8059 68.4433 70.629C68.667 72.5324 69.4578 74.204 70.9851 75.4036C72.4944 76.5893 74.6986 77.0911 76.5919 76.8665L76.7019 76.8509C78.6458 76.7095 80.4223 75.8942 81.7039 74.4157C82.9372 72.9931 83.4036 70.9733 83.264 69.1297C83.1192 67.2136 82.3616 65.5044 80.8926 64.2445C79.2726 62.8552 77.0903 62.4626 75.0145 62.6254L74.9034 62.6348Z" fill="white"/>
<path id="Vector_15" d="M33.6507 63.6794C35.5971 63.512 37.6661 63.8804 39.3503 64.9007C41.2885 66.0748 42.5318 67.9275 43.0626 70.1115C43.4654 71.7687 43.4741 73.71 42.9215 75.3372C42.6582 76.1124 42.2803 76.7856 41.8553 77.482C42.079 77.8236 42.6068 78.1858 42.9236 78.4653C43.9144 79.3395 44.9937 80.2041 45.8967 81.1675C45.6773 81.7289 45.1554 82.2689 44.7793 82.7404C44.3727 82.4946 44.0096 82.1234 43.6534 81.81C42.6182 80.8994 41.6106 79.8468 40.4933 79.0412L40.3075 79.0723C38.8375 80.2349 36.9878 80.8915 35.1356 81.0903C32.666 81.3554 30.0493 80.9147 28.0751 79.3183C26.8369 78.317 25.7969 76.9195 25.3189 75.3947C25.2285 75.1063 25.1147 74.8041 25.0844 74.5028C24.9868 73.534 24.9904 72.5304 25.0138 71.5579C25.0257 71.0637 25.0111 70.5077 25.1066 70.0227C25.2828 69.1287 25.8789 67.9047 26.4497 67.2048C28.2801 64.9607 30.8414 63.9659 33.6507 63.6794ZM34.0374 65.2244C31.8121 65.429 29.7066 66.0484 28.2264 67.8291C27.0247 69.2746 26.544 71.1329 26.7169 72.9949C26.9035 75.0044 27.714 76.8133 29.288 78.112C30.7087 79.2843 32.5361 79.6236 34.3293 79.571C36.3434 79.4478 38.4793 78.769 39.8555 77.2138C41.1187 75.7862 41.7147 74.0111 41.5932 72.1043C41.4719 70.2005 40.7782 68.2455 39.3118 66.9591C37.8559 65.6819 35.9596 65.13 34.0374 65.2244Z" fill="white"/>
</g>
</g>
</svg>
