<svg width="170" height="150" viewBox="0 0 170 150" fill="none" xmlns="http://www.w3.org/2000/svg">
<g id="&#208;&#145;&#208;&#181;&#209;&#129;&#208;&#186;&#208;&#190;&#208;&#189;&#208;&#181;&#209;&#135;&#208;&#189;&#208;&#190;&#209;&#129;&#209;&#130;&#209;&#140;">
<g id="Group">
<path id="Vector" d="M135.332 89.6625V76.2324H136.917V82.2013L142.544 76.2324H144.44L138.689 82.2635L145 89.6314H142.948L136.917 82.4189V89.6314H135.332V89.6625ZM108.938 89.6625V76.2324H116.026V77.6936H110.554V81.5485H116.026V83.0407H110.554V88.1702H116.026V89.6625H108.938ZM85.1554 89.6625V77.7557H81.3627V76.2324H90.5337V77.7557H86.772V89.6625H85.1554ZM52.6373 76.2635H54.2539V84.6262C54.2539 85.9941 54.5337 86.9889 55.1244 87.6107C55.715 88.2324 56.6166 88.5744 57.829 88.5744C59.0725 88.5744 59.9741 88.2635 60.5337 87.6107C61.1244 86.9889 61.4041 85.9941 61.4041 84.6262V76.2635H63.0207V84.6262C63.0207 86.4293 62.5855 87.7972 61.715 88.6987C60.8446 89.6003 59.5389 90.0355 57.7979 90.0355C56.057 90.0355 54.7513 89.6003 53.9119 88.6987C53.0415 87.7972 52.6062 86.4293 52.6062 84.6262V76.2635H52.6373ZM25 89.6625V76.2324H26.5855V82.2013L32.2124 76.2324H34.1088L28.3575 82.2635L34.6684 89.6314H32.6166L26.5855 82.4189V89.6314H25V89.6625Z" fill="white"/>
<path id="Vector_2" d="M108.347 112.327C109.746 112.327 110.554 111.488 110.679 109.933H110.15C110.026 111.208 109.435 111.83 108.378 111.83C107.383 111.83 106.699 111.177 106.699 109.809V106.079C106.699 104.711 107.352 104.058 108.347 104.058C109.404 104.058 109.995 104.68 110.088 105.954H110.617C110.523 104.4 109.684 103.56 108.347 103.56C107.041 103.56 106.14 104.431 106.14 106.079V109.809C106.14 111.457 107.041 112.327 108.347 112.327ZM100.917 112.172H101.477V103.685H100.917V112.172ZM94.3264 112.327C95.7254 112.327 96.5026 111.301 96.5026 110.151C96.5026 107.633 92.772 107.602 92.772 105.519C92.772 104.617 93.3938 104.058 94.3264 104.058C95.1969 104.058 95.7876 104.617 95.8808 105.705H96.4404C96.3783 104.4 95.57 103.529 94.3264 103.529C93.114 103.529 92.2435 104.369 92.2435 105.519C92.2435 107.975 95.9741 108.037 95.9741 110.151C95.9741 111.084 95.4145 111.768 94.3575 111.768C93.3627 111.768 92.772 111.146 92.7099 110.089H92.1503C92.1503 111.426 92.9897 112.327 94.3264 112.327ZM86.057 112.327C87.456 112.327 88.2332 111.301 88.2332 110.151C88.2332 107.633 84.5026 107.602 84.5026 105.519C84.5026 104.617 85.1244 104.058 86.057 104.058C86.9275 104.058 87.5181 104.617 87.6114 105.705H88.171C88.1088 104.4 87.3005 103.529 86.057 103.529C84.8446 103.529 83.9741 104.369 83.9741 105.519C83.9741 107.975 87.7047 108.037 87.7047 110.151C87.7047 111.084 87.1451 111.768 86.0881 111.768C85.0933 111.768 84.5026 111.146 84.4404 110.089H83.8808C83.8808 111.426 84.7202 112.327 86.057 112.327ZM76.4508 109.498L77.3523 106.016C77.5078 105.426 77.6321 104.804 77.7254 104.4C77.8187 104.773 77.9741 105.426 78.0985 106.016L79 109.498H76.4508ZM79.6839 112.172H80.2746L78.0363 103.685H77.4145L75.1762 112.172H75.7669L76.3264 109.996H79.1555L79.6839 112.172ZM68.8031 111.643V103.654H68.2435V112.141H71.9119V111.612H68.8031V111.643ZM61.5596 112.327C62.9586 112.327 63.7669 111.488 63.8912 109.933H63.3627C63.2384 111.208 62.6477 111.83 61.5907 111.83C60.5959 111.83 59.9119 111.177 59.9119 109.809V106.079C59.9119 104.711 60.5648 104.058 61.5596 104.058C62.6166 104.058 63.2073 104.68 63.3005 105.954H63.829C63.7358 104.4 62.8964 103.56 61.5596 103.56C60.2539 103.56 59.3523 104.431 59.3523 106.079V109.809C59.3213 111.457 60.2228 112.327 61.5596 112.327Z" fill="white"/>
<path id="Vector_3" d="M91.4352 57.3938L84.4714 50.4611L91.2797 43.715C92.9896 45.6425 93.8911 48.1606 93.8911 50.8653C93.8911 53.3212 92.9585 55.5907 91.4352 57.3938ZM82.544 61.4974V52.2953L83.1968 51.6425L90.1606 58.6995C88.1088 60.4404 85.4041 61.5285 82.544 61.4974ZM82.544 38.6477V37H80.7409V61.3109C75.3626 60.4404 71.5388 56.0259 71.3523 50.9896C71.2279 47.4145 72.8756 43.4974 77.259 41.1036L76.7305 40.0466C72.2849 42.3472 70.0466 46.6995 70.1709 51.1451C70.4196 56.6166 74.5854 61.6218 80.7409 62.5233V64.8549H82.544V62.6788C85.8082 62.7098 88.7927 61.4974 91.031 59.5389L96.2849 64.8549H98.9585L92.3056 58.2332C94.0155 56.2124 95.0725 53.6321 95.1036 50.8342C95.1347 47.7565 94.0155 44.9896 92.1502 42.8756L98.088 37H95.6321L90.9067 41.6632C88.7927 39.8912 86.0259 38.6166 82.544 38.6477ZM82.544 49.9637V39.829C85.8704 39.829 88.2642 41.0104 90.0362 42.5337L82.544 49.9637Z" fill="white"/>
</g>
</g>
</svg>
