<svg width="389" height="24" viewBox="0 0 389 24" fill="none" xmlns="http://www.w3.org/2000/svg">
<path d="M388.6 9.19982V17.9992H385.428V11.8266H382.373V17.9992H379.2V9.19922H388.6V9.19982Z" fill="black"/>
<path fill-rule="evenodd" clip-rule="evenodd" d="M372.864 18.3998C375.697 18.3998 377.8 16.6712 377.8 14.0507C377.8 11.5143 376.248 9.86753 373.654 9.86753C372.457 9.86753 371.47 10.2869 370.726 11.0105C370.903 9.5149 372.174 8.42304 373.573 8.42304C373.896 8.42304 376.327 8.41793 376.327 8.41793L377.701 5.7998C377.701 5.7998 374.65 5.86895 373.231 5.86895C369.989 5.92516 367.8 8.85774 367.8 12.4195C367.8 16.569 369.935 18.3998 372.864 18.3998ZM372.881 12.1865C373.933 12.1865 374.662 12.8744 374.662 14.0504C374.662 15.1089 374.014 15.981 372.881 15.9834C371.797 15.9834 371.068 15.1753 371.068 14.0684C371.068 12.8921 371.797 12.1865 372.881 12.1865Z" fill="black"/>
<path d="M365.081 15.1707C365.081 15.1707 364.337 15.6062 363.226 15.6886C361.948 15.7271 360.81 14.9077 360.81 13.4519C360.81 12.0319 361.814 11.218 363.193 11.218C364.039 11.218 365.158 11.8132 365.158 11.8132C365.158 11.8132 365.976 10.2878 366.4 9.52494C365.624 8.92729 364.589 8.59961 363.387 8.59961C360.351 8.59961 358 10.6097 358 13.4339C358 16.2942 360.21 18.2575 363.387 18.1983C364.275 18.1647 365.5 17.848 366.246 17.3609L365.081 15.1707Z" fill="black"/>
<path d="M337 5.22461L339.906 10.4196V13.5884L337.003 18.7732L337 5.22461Z" fill="#5B57A2"/>
<path d="M348.159 8.52889L350.883 6.85969L356.456 6.85449L348.159 11.9373V8.52889Z" fill="#D90751"/>
<path d="M348.144 5.19339L348.159 12.0714L345.246 10.2814V0L348.144 5.19339Z" fill="#FAB718"/>
<path d="M356.456 6.85419L350.883 6.85939L348.144 5.19339L345.246 0L356.456 6.85419Z" fill="#ED6F26"/>
<path d="M348.159 18.802V15.465L345.246 13.709L345.248 24.0006L348.159 18.802Z" fill="#63B22F"/>
<path d="M350.876 17.148L339.906 10.4196L337 5.22461L356.445 17.1412L350.876 17.148Z" fill="#1487C9"/>
<path d="M345.248 24L348.159 18.8014L350.876 17.1474L356.444 17.1406L345.248 24Z" fill="#017F36"/>
<path d="M337.003 18.7731L345.27 13.7091L342.491 12.0039L339.906 13.5883L337.003 18.7731Z" fill="#984995"/>
<path d="M233 2.00325H239.874C240.499 2.00325 242.373 1.79496 243.207 4.71115C243.832 6.58584 244.665 9.50203 245.915 13.8763H246.331C247.581 9.29373 248.622 6.16924 249.039 4.71115C249.872 1.79496 251.955 2.00325 252.788 2.00325H259.246V22H252.58V10.1269H252.164L248.622 22H243.623L240.082 10.1269H239.457V22H233M261.954 2.00325H268.619V13.8763H269.244L273.618 4.08625C274.452 2.21155 276.326 2.00325 276.326 2.00325H282.575V22H275.91V10.1269H275.493L271.119 19.917C270.286 21.7917 268.203 22 268.203 22H261.954M291.532 15.9593V22H285.283V11.585H305.697C304.863 14.0846 301.947 15.9593 298.614 15.9593" fill="#0F754E"/>
<path d="M306.113 10.3349C306.946 6.58552 304.447 2.00293 299.031 2.00293H284.867C285.283 6.37722 289.033 10.3349 292.99 10.3349" fill="url(#paint0_linear_180_48)"/>
<path fill-rule="evenodd" clip-rule="evenodd" d="M178.156 2.57324H188.654V21.4365H178.156V2.57324Z" fill="#6C6BBD"/>
<path fill-rule="evenodd" clip-rule="evenodd" d="M178.831 12C178.831 8.17158 180.622 4.76139 183.41 2.563C181.373 0.954423 178.799 0 176 0C169.373 0 164 5.37266 164 12C164 18.6273 169.373 24 176 24C178.799 24 181.373 23.0456 183.41 21.437C180.622 19.2386 178.831 15.8284 178.831 12Z" fill="#EB001B"/>
<path fill-rule="evenodd" clip-rule="evenodd" d="M202.81 12C202.81 18.6273 197.437 24 190.81 24C188.011 24 185.437 23.0456 183.4 21.437C186.188 19.2386 187.979 15.8284 187.979 12C187.979 8.17158 186.188 4.76139 183.4 2.563C185.437 0.954423 188.011 0 190.81 0C197.448 0.0107239 202.81 5.38338 202.81 12Z" fill="#0099DF"/>
<path d="M119.667 2.56641H109.167V21.4331H119.667V2.56641Z" fill="#FF5F00"/>
<path d="M109.833 12C109.833 8.16667 111.633 4.76667 114.4 2.56667C112.367 0.966667 109.8 0 107 0C100.367 0 95 5.36667 95 12C95 18.6333 100.367 24 107 24C109.8 24 112.367 23.0333 114.4 21.4333C111.633 19.2667 109.833 15.8333 109.833 12Z" fill="#EB001B"/>
<path d="M133.834 12C133.834 18.6333 128.467 24 121.834 24C119.034 24 116.467 23.0333 114.434 21.4333C117.234 19.2333 119 15.8333 119 12C119 8.16667 117.2 4.76667 114.434 2.56667C116.467 0.966667 119.034 0 121.834 0C128.467 0 133.834 5.4 133.834 12Z" fill="#F79E1B"/>
<path d="M47.4413 2.81923C45.9247 2.26658 44.3215 1.98926 42.7073 2.00032C37.4872 2.00032 33.8004 4.62997 33.7743 8.40478C33.7417 11.178 36.3942 12.7408 38.4007 13.6673C40.4594 14.62 41.1478 15.2203 41.1413 16.0719C41.1282 17.3671 39.4969 17.9544 37.9798 17.9544C35.895 17.9544 34.7564 17.664 33.0044 16.9365L32.3551 16.633L31.6145 20.9788C32.8837 21.5073 35.1707 21.9608 37.5328 22C43.0825 22 46.7105 19.3867 46.7529 15.3704C46.7986 13.1551 45.3631 11.4814 42.3419 10.0981C40.5051 9.20085 39.3664 8.60054 39.3664 7.69028C39.3664 6.88442 40.3419 6.02309 42.3811 6.02309C43.7382 5.99026 45.0869 6.24488 46.3386 6.77023L46.828 6.98882L47.5686 2.78986L47.4413 2.81923ZM60.9876 2.35268H56.9094C55.6402 2.35268 54.6843 2.70177 54.1297 3.96114L46.2864 21.7292H51.836L52.9453 18.8157L59.7185 18.8222C59.8783 19.5041 60.3677 21.7292 60.3677 21.7292H65.2616L60.9876 2.35268ZM26.2671 2.18955H31.5558L28.2475 21.5759H22.9654L26.2671 2.18302V2.18955ZM12.8416 12.8745L13.3897 15.5662L18.5576 2.35268H24.1595L15.8366 21.7031H10.2478L5.68017 5.31837C5.60619 5.0482 5.43246 4.81617 5.19404 4.66912C3.54774 3.81868 1.80338 3.17331 0 2.74745L0.0717769 2.33963H8.58388C9.73883 2.3853 10.6687 2.74745 10.9786 3.98071L12.8383 12.8843L12.8416 12.8745ZM54.4624 14.8517L56.5701 9.42924C56.544 9.48796 57.004 8.31017 57.2715 7.58261L57.6337 9.25632L58.8571 14.8484H54.4592L54.4624 14.8517Z" fill="#1434CB"/>
<defs>
<linearGradient id="paint0_linear_180_48" x1="303.614" y1="-0.704963" x2="286.95" y2="-0.704963" gradientUnits="userSpaceOnUse">
<stop stop-color="#1F5CD7"/>
<stop offset="1" stop-color="#02AEFF"/>
</linearGradient>
</defs>
</svg>
