<svg width="106" height="30" viewBox="0 0 106 30" fill="none" xmlns="http://www.w3.org/2000/svg">
<g id="Group 615">
<g id="Group">
<path id="Vector" d="M37.9479 22.0907C37.9479 23.2988 37.5291 24.233 36.6915 24.8934C35.9184 25.4893 34.9198 25.7793 33.6795 25.7793C33.3574 25.7793 32.8742 25.7631 32.2138 25.747C31.5695 25.7148 31.0702 25.7148 30.748 25.7148C30.2648 25.7148 29.6044 25.7309 28.7507 25.7793C29.1051 25.3283 29.2984 23.2182 29.2984 19.433C29.2984 17.2747 29.2984 16.1633 29.2984 16.0989C29.2339 14.617 29.0729 13.5539 28.8152 12.8936C29.3145 12.958 29.7977 12.9902 30.2326 12.9902C30.6514 12.9902 31.2795 12.9741 32.1171 12.9419C32.9547 12.9097 33.5829 12.8936 34.0017 12.8936C35.0486 12.8936 35.8862 13.1352 36.5305 13.6184C37.2392 14.166 37.5935 14.9392 37.5935 15.97C37.5935 17.7418 36.4338 18.7565 34.1305 19.0143C35.3224 19.1109 36.2083 19.3525 36.8043 19.723C37.5613 20.2062 37.9479 20.9954 37.9479 22.0907ZM35.5802 16.115C35.5802 14.7137 34.662 14.0211 32.8258 14.0211C32.3104 14.0211 31.7628 14.0533 31.1668 14.0855C31.1346 14.4721 31.1185 15.8895 31.1185 18.3217C31.6661 18.3861 32.2621 18.4183 32.9225 18.4183C33.7117 18.4183 34.3399 18.225 34.8392 17.8384C35.3385 17.468 35.5802 16.8881 35.5802 16.115ZM35.9023 22.1713C35.9023 20.5444 34.8714 19.723 32.8258 19.723C32.7614 19.723 32.1977 19.7391 31.1185 19.7552V23.1699C31.1185 23.8303 31.2634 24.2652 31.5534 24.4585C31.7628 24.6034 32.2299 24.6679 32.9225 24.6679C33.76 24.6679 34.4527 24.4746 35.0003 24.0719C35.5963 23.6209 35.9023 22.9927 35.9023 22.1713Z" fill="#381C14" fill-opacity="0.7"/>
<path id="Vector_2" d="M47.8379 19.7557C47.8379 20.0779 47.8218 20.4322 47.7896 20.8188H41.2823C41.4756 23.3637 42.6836 24.6362 44.9225 24.6362C46.0339 24.6362 46.9198 24.2979 47.5319 23.6375C47.3225 24.2335 47.1936 24.8456 47.1453 25.4576C46.3239 25.6992 45.4702 25.812 44.5843 25.812C42.9414 25.812 41.6689 25.361 40.7186 24.4429C39.7844 23.5248 39.3173 22.2523 39.3173 20.6255C39.3173 19.0953 39.6877 17.8712 40.4125 16.9853C41.2179 16.0189 42.3776 15.5518 43.8756 15.5518C45.1641 15.5518 46.1467 15.9222 46.8071 16.6631C47.5158 17.4363 47.8379 18.4671 47.8379 19.7557ZM45.9534 19.7557C45.9695 17.6457 45.2286 16.5987 43.7628 16.5987C42.2488 16.5987 41.4112 17.6457 41.2823 19.7557H45.9534Z" fill="#381C14" fill-opacity="0.7"/>
<path id="Vector_3" d="M58.2099 20.9636C58.2099 24.2172 56.3898 25.844 52.7657 25.844C52.4113 25.844 52.0731 25.7796 51.7993 25.6346C51.3483 25.4252 51.0422 25.3125 50.9134 25.2803C50.1402 24.491 49.7537 23.5407 49.7537 22.4293C49.7537 22.2199 49.7698 21.8817 49.802 21.4468C49.8342 21.0119 49.8503 20.6736 49.8503 20.4481C49.8503 20.1582 49.8503 19.7233 49.8503 19.1113C49.8342 18.5153 49.8342 18.0643 49.8342 17.7583C49.8342 16.7435 49.8986 15.9704 50.0436 15.4227C50.3013 14.4241 50.8812 13.6832 51.7993 13.1677C52.5724 12.7328 53.5227 12.5234 54.6341 12.5234C55.4878 12.5234 56.277 12.6684 56.9858 12.9744C56.7442 13.506 56.5509 14.0536 56.4059 14.6174C55.9549 13.9892 55.2623 13.6831 54.3442 13.6831C54.0059 13.6831 53.6677 13.7637 53.3456 13.9409C53.0073 14.118 52.7013 14.2952 52.3791 14.4724C51.8315 15.165 51.5577 15.8898 51.5577 16.6791V18.6925C52.1697 17.3395 53.2167 16.6791 54.7147 16.6791C55.9227 16.6791 56.8408 17.0979 57.4529 17.9515C57.9522 18.6764 58.2099 19.6911 58.2099 20.9636ZM56.4703 21.624C56.4703 20.7059 56.2932 19.9327 55.9549 19.3045C55.5039 18.5475 54.8596 18.177 54.0059 18.177C53.0395 18.177 52.3791 18.4348 52.0248 18.9502C51.7509 19.369 51.606 20.0777 51.606 21.0924C51.606 22.0911 51.6865 22.977 51.8637 23.7662C52.057 23.9756 52.2503 24.1689 52.4436 24.3622C52.6852 24.6199 52.9107 24.7326 53.1039 24.7326C54.3442 24.7326 55.1979 24.5232 55.6811 24.1206C56.1965 23.6696 56.4703 22.832 56.4703 21.624Z" fill="#381C14" fill-opacity="0.7"/>
<path id="Vector_4" d="M69.5657 15.6645C69.1469 16.3733 68.6959 17.4363 68.2127 18.8699L65.7644 26.1181C65.3134 27.4389 64.8302 28.3731 64.2987 28.9207C63.6061 29.6455 62.6557 29.9999 61.4155 29.9999C61.2544 29.9999 61.0128 29.9838 60.7068 29.9677C60.9645 29.3395 61.1256 28.6952 61.19 28.0026C61.4155 28.2281 61.6893 28.3409 62.0115 28.3409C62.6557 28.3409 63.2034 28.0509 63.6383 27.455C63.8477 27.1489 64.1376 26.5691 64.5081 25.6993C64.1054 25.6993 63.7671 25.7154 63.4611 25.7476C62.0276 20.5289 60.7873 17.1625 59.7404 15.6484C60.1752 15.6968 60.6101 15.7129 61.0773 15.7129C61.4477 15.7129 61.9631 15.6968 62.6074 15.6484C62.5591 15.8095 62.543 16.0028 62.543 16.2283C62.543 16.9048 62.8007 18.0162 63.3161 19.5625L64.9752 24.5396C65.0074 24.2819 65.1846 23.6859 65.4745 22.7356C65.8288 21.6403 66.1671 20.5611 66.5215 19.4658C66.9725 17.9518 67.2141 16.8887 67.2141 16.2605C67.2141 16.0511 67.1818 15.8578 67.1013 15.6484C67.6328 15.6968 68.0516 15.7129 68.3416 15.7129C68.6315 15.7129 69.0503 15.7129 69.5657 15.6645Z" fill="#381C14" fill-opacity="0.7"/>
<path id="Vector_5" d="M76.5747 15.9862C76.3653 16.5338 76.1881 17.0815 76.0915 17.6291C75.5439 17.0653 74.8351 16.7754 73.9654 16.7754C72.9345 16.7754 72.1452 17.162 71.5815 17.919C71.0822 18.5955 70.8406 19.4653 70.8406 20.5284C70.8406 21.7364 71.1305 22.7351 71.7265 23.4921C72.3707 24.3136 73.2889 24.7323 74.4647 24.7323C75.2056 24.7323 75.8338 24.5229 76.3653 24.1042C76.172 24.6357 76.0432 25.1511 75.9787 25.6504C75.3022 25.7954 74.7224 25.8598 74.2231 25.8598C72.5479 25.8598 71.2432 25.4249 70.309 24.5391C69.3748 23.6532 68.9077 22.3807 68.9077 20.7217C68.9077 19.1432 69.3748 17.8868 70.2929 16.9687C71.211 16.0345 72.4674 15.5674 74.0298 15.5674C74.7868 15.5674 75.6244 15.7123 76.5747 15.9862Z" fill="#381C14" fill-opacity="0.7"/>
<path id="Vector_6" d="M85.7716 15.6641C85.5139 17.3553 85.369 18.6761 85.369 19.5942V23.3955C85.369 24.378 85.4817 25.1673 85.7233 25.7793C85.1918 25.7149 84.7891 25.6666 84.4992 25.6666C84.2092 25.6666 83.8066 25.6988 83.3072 25.7793C83.5166 24.974 83.6294 23.2183 83.6294 20.5123C83.6294 20.0291 83.6294 19.4331 83.6133 18.7244C83.6133 17.5325 83.6133 16.9526 83.6133 16.9526H79.5865V23.2344C79.5865 24.3297 79.6992 25.1834 79.9408 25.7793C79.4093 25.7149 79.0066 25.6666 78.7167 25.6666C78.4268 25.6666 78.0241 25.6988 77.5248 25.7793C77.7342 24.9901 77.8308 23.9753 77.8308 22.7351V18.6439C77.8308 17.4358 77.7342 16.4533 77.5248 15.6641H85.7716Z" fill="#381C14" fill-opacity="0.7"/>
<path id="Vector_7" d="M95.272 19.7557C95.272 20.0779 95.2559 20.4322 95.2237 20.8188H88.7164C88.9097 23.3637 90.1177 24.6362 92.3566 24.6362C93.468 24.6362 94.3539 24.2979 94.966 23.6375C94.7566 24.2335 94.6277 24.8456 94.5794 25.4576C93.7579 25.6992 92.8882 25.812 92.0184 25.812C90.3916 25.812 89.103 25.361 88.1527 24.4429C87.2185 23.5248 86.7513 22.2523 86.7513 20.6255C86.7513 19.0953 87.1218 17.8712 87.8466 16.9853C88.652 16.0189 89.8117 15.5518 91.3097 15.5518C92.5982 15.5518 93.5808 15.9222 94.2573 16.6631C94.9338 17.4363 95.272 18.4671 95.272 19.7557ZM93.3875 19.7557C93.4036 17.6457 92.6627 16.5987 91.1969 16.5987C89.6828 16.5987 88.8453 17.6457 88.7164 19.7557H93.3875Z" fill="#381C14" fill-opacity="0.7"/>
<path id="Vector_8" d="M106.002 25.7959C105.357 25.6993 104.874 25.651 104.52 25.651C104.214 25.651 103.747 25.6993 103.102 25.7959C103.006 25.2805 102.716 24.6362 102.233 23.8631C101.83 23.2671 101.411 22.655 101.009 22.0591C100.574 22.6711 100.139 23.2671 99.6878 23.8953C99.124 24.749 98.7858 25.3771 98.6891 25.7959C98.1415 25.7154 97.7066 25.6671 97.3844 25.6671C96.9817 25.6671 96.5952 25.7154 96.1925 25.7959C96.8529 25.2644 97.5616 24.4912 98.3186 23.4604C98.9468 22.6067 99.5589 21.7369 100.171 20.8833C99.575 19.9813 98.9629 19.0793 98.3509 18.1773C97.6421 17.1464 96.9656 16.3088 96.3053 15.6484C96.9495 15.7129 97.4489 15.7451 97.7871 15.7451C98.1415 15.7451 98.6408 15.7129 99.2851 15.6484C99.2529 15.7129 99.2529 15.7934 99.2529 15.8417C99.2529 16.0994 99.5428 16.6954 100.107 17.6296C100.509 18.2256 100.896 18.8215 101.282 19.4175C101.733 18.8215 102.2 18.2256 102.635 17.6296C103.135 16.9048 103.473 16.2444 103.634 15.6484C104.166 15.7129 104.584 15.7451 104.874 15.7451C105.277 15.7451 105.647 15.7129 105.97 15.6484C105.357 16.3088 104.069 17.9679 102.055 20.6255C102.651 21.5275 103.264 22.4295 103.859 23.3315C104.633 24.3785 105.341 25.2 106.002 25.7959Z" fill="#381C14" fill-opacity="0.7"/>
</g>
<g id="Group_2">
<path id="Vector_9" d="M17.1541 4.9691L20.6493 6.43485L6.04017 16.5018V9.67238H6.57171H8.08578C8.39181 9.68849 8.92335 9.7046 9.42267 9.73681H9.43877C9.45488 9.73681 9.45488 9.73681 9.45488 9.73681C9.59984 9.75292 9.74481 9.75292 9.88977 9.76902C9.9381 9.76902 9.98642 9.78513 10.0347 9.78513C10.3408 9.81735 10.5985 9.86567 10.7112 9.91399C10.7273 9.91399 10.7273 9.9301 10.7273 9.9301C10.7918 9.9462 10.8401 9.96231 10.8884 9.99452C10.9206 10.0106 10.969 10.0106 11.0012 10.0267C11.0012 10.0267 11.0173 10.0267 11.0173 10.0428C11.1783 10.1073 11.275 10.1717 11.3394 10.2361C11.5971 10.4133 11.7904 10.6388 11.8709 10.8965C11.8709 10.9126 11.8871 10.9126 11.8871 10.9287L17.1219 7.32074C16.9125 7.06303 16.687 6.80531 16.4454 6.57981C15.7367 5.91942 14.8991 5.40399 13.9166 5.03353C12.9501 4.66307 11.8871 4.45367 10.7273 4.40535L9.0361 4.34092H0V20.6252V21.7205V25.3446L28.2841 0.78125L17.1541 4.9691Z" fill="#381C14" fill-opacity="0.7"/>
<path id="Vector_10" d="M0 26.7624V27.5838V27.8093V29.9999H10.518C11.6616 29.9999 12.7407 29.8227 13.7233 29.4845C14.7058 29.1462 15.5595 28.6469 16.3004 28.0187C17.0252 27.3905 17.6051 26.6335 18.0078 25.7637C18.4104 24.8939 18.6198 23.9275 18.6198 22.8644C18.6198 22.3329 18.5554 21.8014 18.4427 21.2537C18.3138 20.7061 18.1205 20.1906 17.8467 19.6913C17.5729 19.192 17.2185 18.741 16.7836 18.3222C16.4615 18.0162 16.0588 17.7585 15.6239 17.533L11.9837 21.4792C12.0965 21.753 12.1609 22.0752 12.1609 22.4295C12.1609 22.6711 12.1287 22.9127 12.0642 23.1544C11.9998 23.396 11.8709 23.6376 11.6938 23.847C11.5166 24.0725 11.2911 24.2496 11.0012 24.3785C10.7112 24.5074 10.3569 24.5718 9.90588 24.5718H7.39317L22.3567 8.35191L23.162 12.1532L29.0895 1.58691L0 26.7624Z" fill="#381C14" fill-opacity="0.7"/>
</g>
</g>
</svg>
